<?xml version="1.0" encoding="utf-8"?>
<!-- Generator: Adobe Illustrator 22.1.0, SVG Export Plug-In . SVG Version: 6.00 Build 0)  -->
<svg version="1.1" id="Layer_1" xmlns="http://www.w3.org/2000/svg" xmlns:xlink="http://www.w3.org/1999/xlink" x="0px" y="0px"
	 viewBox="0 0 89 50" style="enable-background:new 0 0 89 50;" xml:space="preserve">
<style type="text/css">
	.st0{fill:#27B6C1;}
</style>
<title>logo_blue</title>
<desc>Created with Sketch.</desc>
<g id="header-and-footer">
	<g id="HEADER-RESPONSIVE-WHITE" transform="translate(-17.000000, -13.000000)">
		<g id="logo_blue" transform="translate(17.000000, 13.000000)">
			<path id="Shape" class="st0" d="M2.7,3C3,3.2,3.2,3.5,3.3,3.8C3.5,4.1,3.5,4.5,3.5,5v10.8c0,0.5-0.1,1-0.2,1.3
				c-0.1,0.3-0.3,0.6-0.6,0.8c-0.3,0.2-0.6,0.3-0.9,0.3c-0.3,0-1,0.1-1.5,0.1c-0.1,0-0.2,0-0.2,0.1C0,18.5,0,18.5,0,18.6v0.9
				c0,0.1,0,0.2,0.1,0.2c0.1,0.1,0.1,0.1,0.2,0.1h10c0.2,0,0.3-0.1,0.3-0.3v-0.9c0-0.2-0.1-0.3-0.3-0.3H9.6c-0.4,0-0.7,0-1.1-0.1
				c-0.3,0-0.6-0.2-0.9-0.3c-0.3-0.2-0.5-0.4-0.6-0.7c-0.2-0.3-0.2-0.7-0.2-1.2v-5.5c0-0.4,0-0.9,0.1-1.5C6.9,8.5,7,8,7.1,7.4
				c0.1-0.5,0.2-1.1,0.4-1.6c0.2-0.5,0.4-1,0.6-1.4c0.2-0.4,0.5-0.7,0.9-1c0.3-0.2,0.7-0.4,1.1-0.4c0.7,0,1.1,0.2,1.4,0.6
				c0.2,0.4,0.4,1,0.4,1.8c0,0.2,0.1,0.3,0.3,0.3c0.4,0,0.8-0.1,1.2-0.2c0.4-0.1,0.7-0.3,1-0.5c0.3-0.2,0.4-0.5,0.6-0.8
				c0.1-0.3,0.2-0.7,0.2-1c0-0.8-0.3-1.4-0.9-1.9c-0.6-0.4-1.5-0.7-2.8-0.7c-0.8,0-1.4,0.1-1.9,0.3C9.1,1.3,8.7,1.6,8.3,1.9
				C7.9,2.3,7.7,2.7,7.4,3.1C7.3,3.4,7.1,3.7,6.9,4.1c0,0.1-0.1,0.1-0.2,0.1C6.6,4.1,6.6,4.1,6.6,4V2.6c0-0.8-0.7-1.5-1.5-1.5H0.3
				C0.1,1.2,0,1.3,0,1.4c0,0.6,0.5,1.2,1.1,1.2c0.3,0,0.5,0,0.6,0C2.1,2.7,2.4,2.9,2.7,3z"/>
			<path id="Shape_1_" class="st0" d="M44.3,9c-2.6,0.1-4.6,0.6-5.9,1.5c-1.3,0.9-2,2.3-2,4.1c0,0.9,0.1,1.8,0.4,2.5
				c0.2,0.7,0.6,1.2,1.1,1.7c0.5,0.5,1.1,0.8,1.7,1c0.7,0.2,1.4,0.3,2.1,0.3c0.7,0,1.3-0.1,1.8-0.2c0.5-0.2,1-0.4,1.4-0.7
				c0.4-0.3,0.8-0.7,1.1-1.1c0.3-0.4,1.2-1.3,1.2-1.3v1.5c0,0.8,0.6,1.4,1.4,1.4h3.6c0.2,0,0.3-0.1,0.3-0.3v-0.9
				c0-0.1-0.1-0.3-0.3-0.3c-0.3,0-0.6,0-0.8-0.1c-0.3-0.1-0.5-0.2-0.7-0.4c-0.2-0.2-0.3-0.5-0.4-0.8c-0.1-0.4-0.1-0.8-0.1-1.2v-9
				c0-1.1-0.1-2-0.4-2.8c-0.2-0.7-0.6-1.3-1.2-1.9c-0.5-0.5-1.2-0.8-2-1s-1.7-0.3-2.8-0.3c-0.8,0-1.6,0.1-2.4,0.2
				c-0.7,0.1-1.3,0.3-2,0.6c-0.5,0.2-1,0.6-1.3,1C38,3,37.9,3.5,37.9,4.1c0,0.8,0.2,1.4,0.7,1.7c0.4,0.3,1.1,0.5,1.9,0.5
				c0.1,0,0.2,0,0.2-0.1c0.1-0.1,0.1-0.1,0.1-0.2c0-0.4,0-0.8,0.1-1.2C41,4.4,41.1,4,41.4,3.6c0.2-0.3,0.6-0.6,1-0.8
				c0.4-0.2,0.9-0.3,1.6-0.3c0.7,0,1.3,0.1,1.7,0.3c0.4,0.2,0.7,0.5,1,0.9C46.8,4.2,47,4.6,47,5.1c0.1,0.6,0.1,1.1,0.1,1.7v1.8
				c0,0.2-0.1,0.3-0.3,0.3L44.3,9z M47.1,13.1c0,0.7-0.1,1.4-0.3,2c-0.2,0.6-0.5,1.1-0.9,1.5c-0.4,0.4-0.9,0.8-1.5,1
				c-0.6,0.2-1.2,0.3-1.9,0.3c-0.9,0-1.7-0.3-2.1-0.8c-0.5-0.5-0.7-1.3-0.7-2.4c0-0.6,0.1-1.2,0.3-1.8c0.2-0.5,0.5-1,0.9-1.3
				c0.4-0.4,0.9-0.6,1.6-0.8c0.7-0.2,1.5-0.3,2.4-0.4l1.9-0.1c0.1,0,0.2,0,0.2,0.1c0.1,0.1,0.1,0.1,0.1,0.2L47.1,13.1z"/>
			<path id="Shape_2_" class="st0" d="M16.1,1.4c0,0.6,0.5,1.2,1.1,1.2l0.1,0c0.3,0,0.6,0.2,0.9,0.3c0.3,0.2,0.5,0.4,0.6,0.7
				C18.9,4.1,19,4.5,19,5v8.3c0,1.2,0.1,2.2,0.4,3.1c0.3,0.9,0.6,1.6,1.1,2.1c0.5,0.6,1.1,1,1.8,1.2c0.8,0.3,1.6,0.4,2.4,0.4
				c0.5,0,1.1,0,1.6-0.1c1.1-0.2,2.1-0.7,2.8-1.4c0.3-0.3,0.8-0.9,1.1-1.3c0,0,0.1-0.1,0.2,0s0.1,0.1,0.1,0.1c0,1.3,1.1,2.4,2.4,2.4
				h3.3c0.2,0,0.3-0.1,0.3-0.3v-0.9c0-0.1-0.1-0.3-0.3-0.3c-0.3,0-0.7,0-0.9-0.1c-0.3,0-0.6-0.1-0.9-0.3c-0.3-0.2-0.5-0.4-0.6-0.7
				c-0.2-0.3-0.2-0.7-0.2-1.2V1.5c0-0.2-0.1-0.3-0.3-0.3h-5.6c-0.2,0-0.3,0.1-0.3,0.3c0,0.6,0.5,1.2,1.1,1.2c0,0,0.1,0,0.1,0
				c0.3,0,0.6,0.2,0.9,0.3c0.3,0.2,0.5,0.5,0.6,0.8c0.2,0.3,0.2,0.8,0.2,1.3v7.2c0,0.8-0.1,1.5-0.3,2.3c-0.1,0.6-0.4,1.2-0.8,1.8
				c-0.4,0.5-0.8,0.9-1.3,1.1c-0.5,0.3-1.2,0.4-2,0.4c-0.7,0-1.3-0.1-1.7-0.3c-0.4-0.2-0.8-0.5-1.1-0.9c-0.3-0.5-0.5-1-0.6-1.5
				c-0.1-0.7-0.2-1.3-0.2-2V1.5c0-0.1,0-0.2-0.1-0.2c-0.1-0.1-0.1-0.1-0.2-0.1h-5.6C16.2,1.2,16.1,1.3,16.1,1.4z"/>
			<path id="Shape_3_" class="st0" d="M72,20c-0.4,0.4-0.7,0.8-1,1.3c-0.2,0.5-0.4,1.1-0.4,1.8c0,1.6,0.6,2.8,1.8,3.7
				c1.2,0.9,3,1.3,5.4,1.3c1.6,0,2.9-0.2,4.1-0.5c1.2-0.3,2.1-0.7,2.9-1.3c0.7-0.5,1.3-1.2,1.7-2c0.4-0.9,0.6-1.8,0.5-2.7
				c0-0.7-0.1-1.4-0.3-2.1c-0.2-0.6-0.5-1.2-1-1.7c-0.5-0.5-1.1-0.8-1.8-1.1c-0.7-0.3-1.6-0.4-2.6-0.4h-3.9c-0.3,0-0.6,0-0.9,0
				c-0.2,0-0.5-0.1-0.7-0.2c-0.2-0.1-0.3-0.2-0.4-0.4c-0.1-0.2-0.2-0.4-0.2-0.7c0-0.2,0-0.5,0.1-0.7c0.1-0.2,0.2-0.4,0.4-0.6
				c0.2-0.2,0.3-0.3,0.5-0.5c0.2-0.1,0.3-0.2,0.5-0.3c0.1,0,0.2-0.1,0.3,0l0.2,0c0.1,0,0.3,0,0.5,0c0.2,0,0.3,0,0.5,0
				c0.2,0,0.3,0,0.5,0c1,0,2-0.1,2.7-0.4c0.7-0.3,1.4-0.7,1.9-1.3c0.5-0.5,0.9-1.2,1.2-1.9c0.3-0.8,0.4-1.6,0.4-2.4
				c0-1-0.1-1.8-0.4-2.5c-0.2-0.5-0.5-1-0.8-1.5c0-0.1-0.1-0.2,0-0.2c0-0.1,0.1-0.1,0.2-0.2c0.1-0.1,0.3-0.1,0.4-0.2
				c0.3-0.1,0.5-0.1,0.8-0.1c0.2,0,0.4,0,0.6,0.1c0.1,0.1,0.3,0.2,0.3,0.3c0.1,0.1,0.1,0.2,0.2,0.4c0,0.1,0,0.1,0,0.2
				c0,0.1,0.2,0.3,0.3,0.2c0.2,0,0.4-0.1,0.5-0.1c0.2-0.1,0.4-0.2,0.6-0.4c0.1-0.2,0.3-0.4,0.3-0.6C88,2.4,88,2.1,88,1.9
				c0-0.2,0-0.5-0.1-0.7c-0.1-0.2-0.2-0.4-0.4-0.6c-0.2-0.2-0.4-0.3-0.6-0.4c-0.3-0.1-0.6-0.2-0.9-0.1c-0.4,0-0.7,0.1-1.1,0.2
				c-0.3,0.1-0.6,0.3-0.9,0.5c-0.3,0.2-0.5,0.4-0.8,0.6c-0.2,0.1-0.3,0.3-0.4,0.4c-0.1,0.1-0.2,0.1-0.4,0c-0.2-0.1-0.3-0.2-0.5-0.3
				c-0.3-0.1-0.6-0.3-0.9-0.4c-0.4-0.1-0.7-0.2-1.1-0.3c-0.4-0.1-0.8-0.1-1.2-0.1c-1.1,0-2,0.1-2.9,0.4c-0.8,0.3-1.5,0.7-2,1.3
				c-0.6,0.6-1,1.3-1.2,2c-0.3,0.8-0.4,1.7-0.4,2.7c0,0.6,0.1,1.1,0.2,1.7c0.1,0.5,0.3,1,0.6,1.5c0.3,0.5,0.6,0.9,1,1.2
				c0.3,0.2,0.5,0.4,0.8,0.6c0.1,0.1,0.2,0.2,0.2,0.3c0,0.1,0,0.2-0.1,0.3c-0.5,0.4-1,0.8-1.2,1.2c-0.4,0.5-0.5,1.1-0.5,1.8
				c0,0.3,0.1,0.7,0.2,1c0.1,0.3,0.3,0.6,0.4,0.8c0.2,0.2,0.4,0.4,0.6,0.6c0.1,0.1,0.2,0.2,0.3,0.2c0.1,0,0.1,0.1,0.1,0.1
				c0,0.1-0.1,0.1-0.1,0.1c-0.4,0.1-0.9,0.2-1.3,0.4C72.8,19.4,72.4,19.7,72,20z M76.2,3.7c0.5-0.8,1.3-1.1,2.4-1.1
				c1.1,0,1.9,0.4,2.4,1.1c0.5,0.7,0.7,1.9,0.7,3.5c0,0.7,0,1.3-0.2,2c-0.1,0.5-0.3,0.9-0.5,1.4c-0.2,0.3-0.6,0.6-1,0.8
				c-0.4,0.2-0.9,0.3-1.4,0.3c-1.1,0-1.9-0.3-2.4-1c-0.5-0.7-0.7-1.8-0.7-3.3C75.5,5.6,75.7,4.4,76.2,3.7z M73.8,21.2
				c0.2-0.4,0.5-0.7,0.8-1c0.4-0.2,0.8-0.4,1.2-0.5c0.5-0.1,0.9-0.1,1.4-0.1h3.4c0.5,0,1,0,1.5,0.1c0.4,0.1,0.8,0.2,1.1,0.4
				c0.3,0.2,0.5,0.5,0.7,0.8c0.2,0.3,0.2,0.8,0.2,1.3c0,0.6-0.1,1.1-0.3,1.7c-0.2,0.5-0.5,1-1,1.3c-0.5,0.4-1.1,0.7-1.9,0.9
				c-0.8,0.2-1.8,0.3-3.1,0.3c-0.9,0-1.6-0.1-2.2-0.3s-1-0.4-1.4-0.7c-0.3-0.3-0.6-0.7-0.7-1.1c-0.1-0.5-0.2-0.9-0.2-1.4
				C73.4,22.2,73.6,21.6,73.8,21.2z"/>
			<path id="Shape_4_" class="st0" d="M68.3,4.5C68,3.7,67.6,3,67.1,2.4c-0.5-0.5-1.1-1-1.8-1.2c-0.8-0.3-1.6-0.4-2.4-0.4
				c-0.5,0-1.1,0-1.6,0.1c-0.5,0.1-1,0.2-1.4,0.5c-0.5,0.3-0.9,0.6-1.3,1c-0.2,0.3-0.7,0.8-1,1.2c0,0.1-0.1,0.1-0.2,0.1
				s-0.1-0.1-0.1-0.2V2.7c0-0.9-0.7-1.6-1.6-1.6h-4.2c-0.2,0-0.3,0.1-0.3,0.3c0,0.6,0.5,1.2,1.1,1.2l0.1,0c0.3,0.1,0.6,0.2,0.9,0.3
				c0.3,0.2,0.5,0.4,0.6,0.7c0.2,0.3,0.2,0.7,0.2,1.2v14.5c0,0.2,0.1,0.3,0.3,0.3h5.6c0.2,0,0.3-0.1,0.3-0.3v-0.9
				c0-0.1-0.1-0.3-0.3-0.3c-0.3,0-0.7,0-0.9-0.1c-0.3,0-0.6-0.1-0.9-0.3c-0.3-0.2-0.5-0.4-0.6-0.7c-0.2-0.3-0.2-0.7-0.2-1.2V8.7
				c0-0.7,0.1-1.4,0.2-2.1c0.1-0.6,0.4-1.2,0.7-1.8c0.3-0.5,0.8-0.9,1.3-1.2c0.5-0.3,1.2-0.5,2-0.5c0.7,0,1.3,0.1,1.8,0.3
				c0.5,0.2,0.9,0.5,1.2,0.9c0.3,0.4,0.5,1,0.6,1.5c0.1,0.7,0.2,1.3,0.2,2v11.7c0,0.2,0.1,0.3,0.3,0.3h5.5c0.2,0,0.3-0.1,0.3-0.3
				v-0.9c0-0.1-0.1-0.3-0.3-0.3c-0.3,0-0.7,0-0.9-0.1c-0.3,0-0.6-0.2-0.8-0.3c-0.2-0.2-0.4-0.5-0.5-0.8c-0.1-0.3-0.2-0.8-0.2-1.3
				V7.6C68.7,6.4,68.5,5.4,68.3,4.5z"/>
			<path id="Shape_5_" class="st0" d="M16,40.8c-0.2-0.6-0.5-1.2-1-1.6c-0.5-0.5-1.1-0.9-1.8-1.1c-0.7-0.3-1.6-0.4-2.6-0.4H6.7
				c-0.3,0-0.6,0-0.8,0c-0.2,0-0.5-0.1-0.7-0.2c-0.2-0.1-0.3-0.2-0.4-0.4c-0.1-0.2-0.2-0.4-0.2-0.7c0-0.2,0-0.5,0.1-0.7
				c0.1-0.2,0.2-0.4,0.4-0.6c0.2-0.2,0.3-0.3,0.5-0.5c0.2-0.1,0.4-0.3,0.6-0.4c0.1,0,0.2,0,0.4,0s0.3,0,0.5,0c0.2,0,0.3,0,0.5,0
				c0.2,0,0.3,0,0.5,0c1,0,2-0.1,2.7-0.4c0.7-0.3,1.4-0.7,1.9-1.2c0.5-0.5,0.9-1.2,1.2-1.9c0.3-0.8,0.4-1.6,0.4-2.4
				c0-1-0.1-1.8-0.4-2.5c-0.3-0.7-0.7-1.4-1.2-2c-0.1-0.1-0.2-0.2-0.3-0.3c-0.1-0.1-0.1-0.2,0-0.3c0.1-0.1,0.2-0.3,0.3-0.4
				c0.2-0.2,0.4-0.4,0.6-0.5c0.2-0.1,0.4-0.2,0.5-0.2c0.2,0,0.3,0,0.4,0.1c0.1,0.1,0.2,0.1,0.3,0.2c0,0,0.1,0.1,0.1,0.1
				c0.1,0.1,0.3,0.1,0.4,0.1c0.2-0.1,0.3-0.2,0.4-0.4c0.1-0.2,0.2-0.4,0.3-0.6c0-0.2,0-0.4,0-0.7c0-0.2-0.1-0.5-0.3-0.7
				c-0.1-0.2-0.3-0.4-0.4-0.5c-0.2-0.1-0.4-0.3-0.6-0.3c-0.2-0.1-0.5-0.1-0.7,0c-0.3,0.1-0.6,0.2-0.8,0.3c-0.3,0.2-0.6,0.4-0.8,0.7
				c-0.2,0.3-0.4,0.6-0.6,0.9c-0.1,0.3-0.3,0.6-0.4,0.9l0,0.1c0,0.1-0.1,0.1-0.1,0.2c-0.1,0-0.1,0-0.2,0c-0.1,0-0.2-0.1-0.4-0.1
				c-0.4-0.1-0.7-0.2-1.1-0.3c-0.4-0.1-0.8-0.1-1.2-0.1c-1.1,0-2,0.1-2.8,0.4c-0.8,0.3-1.5,0.7-2,1.3c-0.5,0.6-1,1.3-1.2,2
				c-0.3,0.8-0.4,1.7-0.4,2.7c0,0.6,0.1,1.1,0.2,1.7c0.1,0.5,0.3,1,0.6,1.5c0.3,0.5,0.6,0.9,1,1.2c0.4,0.4,0.8,0.6,1.3,0.8
				c-0.8,0.5-1.4,1-1.7,1.5C2.4,36,2.3,37.1,2.6,38c0.1,0.3,0.3,0.6,0.4,0.8c0.2,0.2,0.4,0.4,0.6,0.6c0.2,0.2,0.4,0.3,0.7,0.4
				c-0.6,0.1-1.1,0.3-1.6,0.5c-0.5,0.2-1,0.5-1.4,0.9c-0.4,0.4-0.7,0.8-0.9,1.3C0.1,43.1,0,43.7,0,44.3c0,1.6,0.6,2.8,1.8,3.7
				s3,1.3,5.4,1.3c1.6,0,2.9-0.2,4.1-0.5c1.1-0.3,2.1-0.7,2.9-1.3c0.7-0.5,1.3-1.2,1.7-2c0.4-0.8,0.6-1.8,0.5-2.7
				C16.3,42.2,16.2,41.5,16,40.8z M5.5,24.9c0.5-0.8,1.3-1.1,2.4-1.1s1.9,0.4,2.4,1.1s0.7,1.9,0.7,3.5c0,0.7,0,1.3-0.2,2
				c-0.1,0.5-0.3,0.9-0.5,1.3c-0.2,0.3-0.6,0.6-0.9,0.8c-0.4,0.2-0.9,0.3-1.4,0.3c-1.1,0-1.9-0.3-2.4-1C5,31,4.8,29.9,4.8,28.4
				C4.8,26.8,5,25.7,5.5,24.9z M13.2,45.1c-0.2,0.5-0.5,1-1,1.3c-0.5,0.4-1.1,0.7-1.9,0.9c-0.8,0.2-1.8,0.3-3.1,0.3
				c-0.9,0-1.6-0.1-2.2-0.3s-1-0.4-1.4-0.7c-0.3-0.3-0.6-0.7-0.7-1.1c-0.1-0.5-0.2-0.9-0.2-1.4c0-0.7,0.1-1.3,0.3-1.7
				c0.2-0.4,0.5-0.7,0.9-1c0.4-0.2,0.8-0.4,1.2-0.5c0.5-0.1,0.9-0.1,1.4-0.1H10c0.5,0,1,0,1.5,0.1c0.4,0.1,0.8,0.2,1.1,0.4
				c0.3,0.2,0.5,0.5,0.7,0.8c0.2,0.3,0.2,0.8,0.2,1.3C13.5,44,13.4,44.6,13.2,45.1z"/>
			<path id="Shape_6_" class="st0" d="M16.1,22.7c0,0.6,0.5,1.2,1.1,1.2l0.1,0c0.3,0,0.6,0.2,0.9,0.3c0.3,0.2,0.5,0.4,0.6,0.7
				c0.2,0.3,0.2,0.7,0.2,1.2v8.3c0,1.2,0.1,2.2,0.4,3.1c0.3,0.9,0.6,1.6,1.1,2.1c0.5,0.6,1.1,1,1.8,1.2c0.8,0.3,1.6,0.4,2.4,0.4
				c0.5,0,1.1,0,1.6-0.1c1.1-0.2,2.1-0.7,2.8-1.4c0.3-0.3,0.8-0.9,1.1-1.3c0,0,0.1-0.1,0.2,0s0.1,0.1,0.1,0.1c0,0.6,0.2,1.3,0.7,1.7
				c0.4,0.5,1.1,0.7,1.7,0.7h3.3c0.2,0,0.3-0.1,0.3-0.3v-0.9c0-0.1-0.1-0.3-0.3-0.3c-0.3,0-0.7,0-0.9-0.1c-0.3,0-0.6-0.1-0.9-0.3
				c-0.3-0.2-0.5-0.4-0.6-0.7c-0.2-0.3-0.2-0.7-0.2-1.2V22.7c0-0.1,0-0.2-0.1-0.2c-0.1-0.1-0.1-0.1-0.2-0.1h-5.6
				c-0.1,0-0.2,0-0.2,0.1c-0.1,0.1-0.1,0.1-0.1,0.2c0,0.6,0.5,1.2,1.1,1.2c0,0,0.1,0,0.1,0c0.3,0,0.6,0.2,0.9,0.3
				c0.3,0.2,0.5,0.5,0.6,0.8c0.2,0.3,0.2,0.8,0.2,1.3v7.2c0,0.8-0.1,1.5-0.3,2.3c-0.1,0.6-0.4,1.2-0.8,1.8c-0.4,0.5-0.8,0.9-1.3,1.1
				c-0.5,0.3-1.2,0.4-2,0.4c-0.7,0-1.3-0.1-1.7-0.3c-0.4-0.2-0.8-0.5-1.1-0.9c-0.3-0.5-0.5-1-0.6-1.5c-0.1-0.7-0.2-1.3-0.2-2V22.7
				c0-0.2-0.1-0.3-0.3-0.3h-5.6C16.2,22.4,16.1,22.5,16.1,22.7z"/>
			<path id="Shape_7_" class="st0" d="M49.4,22.7c-0.6-0.4-1.5-0.7-2.8-0.7c-0.8,0-1.4,0.1-1.9,0.3c-0.5,0.2-0.9,0.5-1.3,0.8
				c-0.3,0.4-0.6,0.8-0.9,1.2c-0.1,0.2-0.3,0.6-0.5,0.9c0,0.1-0.1,0.1-0.2,0.1c-0.1,0-0.1-0.1-0.1-0.2v-1.3c0-0.8-0.7-1.5-1.5-1.5
				h-4.8c-0.2,0-0.3,0.1-0.3,0.3c0,0.6,0.5,1.2,1.1,1.2c0.3,0,0.5,0,0.6,0c0.3,0,0.6,0.2,0.9,0.3c0.3,0.2,0.5,0.4,0.6,0.7
				c0.2,0.3,0.2,0.7,0.2,1.2v14.5c0,0.2,0.1,0.3,0.3,0.3h6.4c0.2,0,0.3-0.1,0.3-0.3v-0.9c0-0.2-0.1-0.3-0.3-0.3h-0.7
				c-0.4,0-0.7,0-1.1-0.1c-0.3,0-0.6-0.2-0.9-0.3c-0.3-0.2-0.5-0.4-0.6-0.7c-0.2-0.3-0.2-0.7-0.2-1.2v-5.5c0-0.4,0-0.9,0.1-1.5
				c0-0.5,0.1-1.1,0.2-1.6c0.1-0.5,0.2-1.1,0.4-1.6c0.2-0.5,0.4-0.9,0.6-1.4c0.2-0.4,0.5-0.7,0.9-1c0.3-0.2,0.7-0.4,1.1-0.4
				c0.7,0,1.1,0.2,1.4,0.6c0.2,0.4,0.4,1,0.4,1.8c0,0.2,0.1,0.3,0.3,0.3c0.4,0,0.8-0.1,1.2-0.2c0.4-0.1,0.7-0.3,1-0.5
				c0.3-0.2,0.4-0.5,0.6-0.8c0.1-0.3,0.2-0.7,0.2-1C50.3,23.8,50,23.2,49.4,22.7z"/>
			<path id="Shape_8_" class="st0" d="M71.1,39.6c-0.3,0-0.6,0-0.7-0.1c-0.3,0-0.6-0.1-0.9-0.3c-0.3-0.2-0.5-0.4-0.6-0.7
				c-0.2-0.3-0.2-0.7-0.2-1.2V22.7c0-0.1,0-0.2-0.1-0.2c-0.1-0.1-0.1-0.1-0.2-0.1h-5.6c-0.2,0-0.3,0.1-0.3,0.3
				c0,0.6,0.5,1.2,1.1,1.2c0,0,0.1,0,0.1,0c0.3,0,0.6,0.2,0.9,0.3c0.3,0.2,0.5,0.5,0.6,0.8c0.2,0.3,0.2,0.8,0.2,1.3v7.2
				c0,0.8-0.1,1.5-0.3,2.3c-0.1,0.6-0.4,1.2-0.8,1.8c-0.4,0.5-0.8,0.9-1.3,1.1c-0.5,0.3-1.2,0.4-2,0.4c-0.7,0-1.3-0.1-1.7-0.3
				c-0.4-0.2-0.8-0.5-1.1-0.9c-0.3-0.5-0.5-1-0.6-1.5c-0.1-0.7-0.2-1.3-0.2-2V22.7c0-0.2-0.1-0.3-0.3-0.3h-5.6
				c-0.2,0-0.3,0.1-0.3,0.3c0,0.6,0.5,1.2,1.1,1.2l0.1,0c0.3,0,0.6,0.2,0.9,0.3c0.3,0.2,0.5,0.4,0.6,0.7c0.2,0.3,0.2,0.7,0.2,1.2
				v8.3c0,1.2,0.1,2.2,0.4,3.1c0.3,0.9,0.6,1.6,1.1,2.1c0.5,0.6,1.1,1,1.8,1.2c0.8,0.3,1.6,0.4,2.4,0.4c0.5,0,1.1,0,1.6-0.1
				c1.1-0.2,2.1-0.7,2.8-1.4c0.3-0.3,0.8-0.9,1.1-1.3c0,0,0.1-0.1,0.2,0s0.1,0.1,0.1,0.1c0,0.6,0.2,1.3,0.7,1.7
				c0.4,0.5,1.1,0.7,1.7,0.7h18.8c0.1,0,0.2-0.1,0.2-0.2v-1c0-0.1-0.1-0.2-0.2-0.2L71.1,39.6z"/>
		</g>
	</g>
</g>
</svg>
